<?xml version="1.0" encoding="utf-8"?>
<!-- Generator: Adobe Illustrator 21.0.2, SVG Export Plug-In . SVG Version: 6.00 Build 0)  -->
<svg version="1.1" id="Layer_1" xmlns="http://www.w3.org/2000/svg" xmlns:xlink="http://www.w3.org/1999/xlink" x="0px" y="0px"
	 viewBox="0 0 372.7 495.8" style="enable-background:new 0 0 372.7 495.8;" xml:space="preserve">
<style type="text/css">
	.st0{opacity:0.25;}
	.st1{fill:#887A6E;}
	.st2{fill:#B5B87C;}
	.st3{fill:#BDBCBC;}
	.st4{fill:#EAD6CE;}
	.st5{fill:#929292;}
	.st6{fill:#9A3E37;}
	.st7{fill:#BEBDBD;}
	.st8{fill:#B7745A;}
	.st9{display:none;}
	.st10{font-family:'Frutiger55Roman';}
	.st11{font-size:22px;}
</style>
<title>Artboard 1</title>
<g class="st0">
	<path class="st1" d="M270.1,163.4v-1.2c4.1,0,8-1.6,10.9-4.5l0.9,0.9C278.8,161.7,274.5,163.4,270.1,163.4z"/>
	<path class="st1" d="M192.9,182.8h-1.2c0-26.8,21.7-48.5,48.5-48.5h0h2v1.2h-2C214.1,135.6,193,156.7,192.9,182.8z"/>
	<path class="st1" d="M192.9,125.3h-1.2c0-27.9,22.6-50.5,50.5-50.5V76c-27.1-0.1-49.2,21.9-49.3,49
		C192.9,125.1,192.9,125.2,192.9,125.3z"/>
	<path class="st1" d="M192.9,96h-1.2c0-27.9,22.6-50.5,50.5-50.5v1.2c-27.1-0.1-49.2,21.9-49.3,49C192.9,95.8,192.9,95.9,192.9,96z"
		/>
	<path class="st1" d="M286.7,146.8h-1.2c0-4.1-1.6-8-4.5-10.9l0.9-0.9C285,138.2,286.7,142.4,286.7,146.8z"/>
	<path class="st1" d="M281.9,158.6l-0.9-0.9c2.9-2.9,4.5-6.8,4.5-10.9h1.2C286.7,151.2,285,155.5,281.9,158.6z"/>
	<path class="st1" d="M192.9,212.7h-1.2c0-27.9,22.6-50.5,50.5-50.5h33.9c9.4,0,18.4-3.7,25-10.3c6.7-6.6,10.4-15.6,10.3-25h1.2
		c0,20.2-16.3,36.6-36.5,36.6c0,0,0,0,0,0h-34c-27.1-0.1-49.1,21.7-49.2,48.8c0,0,0,0,0,0C192.9,212.4,192.9,212.6,192.9,212.7
		L192.9,212.7z"/>
	<path class="st1" d="M192.9,154.5h-1.2c0-27.9,22.6-50.5,50.5-50.5h10c12.8,0,23.3-10.3,23.3-23.1c0,0,0,0,0,0c0-0.1,0-0.1,0-0.2
		h1.2c0,13.4-10.6,24.3-24,24.6h-10.6c-27.1-0.1-49.1,21.7-49.2,48.8c0,0,0,0,0,0C192.9,154.2,192.9,154.4,192.9,154.5L192.9,154.5z
		"/>
	<path class="st1" d="M204.3,495.7c-7,0-12.6-5.6-12.6-12.6v-6L191.6,29h1.2l0.1,454.1c0,6.2,5,11.3,11.2,11.3c0,0,0,0,0,0h0.1
		L204.3,495.7L204.3,495.7z"/>
	<path class="st2" d="M233.7,135.9c0,3.3,2.7,6,6,6s6-2.7,6-6c0-3.3-2.7-6-6-6S233.7,132.6,233.7,135.9"/>
	<path class="st2" d="M227.2,168.9c0,5-4,9-9,9s-9-4-9-9s4-9,9-9S227.2,163.9,227.2,168.9"/>
	<path class="st2" d="M229.5,75.4c0,6.6,5.4,12,12,12s12-5.4,12-12s-5.4-12-12-12S229.5,68.8,229.5,75.4"/>
	<path class="st3" d="M306.1,126.9c0,3.3,2.7,6,6,6s6-2.7,6-6c0-3.3-2.7-6-6-6S306.1,123.6,306.1,126.9"/>
	<path class="st3" d="M204.1,87.1c0,3.3,2.7,6,6,6s6-2.7,6-6c0-3.3-2.7-6-6-6S204.1,83.8,204.1,87.1"/>
	<path class="st3" d="M231.1,46.4c0,3.3,2.7,6,6,6s6-2.7,6-6c0-3.3-2.7-6-6-6S231.1,43.1,231.1,46.4"/>
	<path class="st3" d="M270.1,80.9c0,3.3,2.7,6,6,6s6-2.7,6-6s-2.7-6-6-6l0,0l0,0C272.8,74.9,270.1,77.6,270.1,80.9"/>
	<path class="st3" d="M244.2,104.6c0,3.3,2.7,6,6,6s6-2.7,6-6s-2.7-6-6-6S244.2,101.3,244.2,104.6"/>
	<path class="st3" d="M204.2,33c0,6.6-5.4,12-12,12s-12-5.4-12-12s5.4-12,12-12S204.2,26.4,204.2,33"/>
	<path class="st3" d="M268,132.3c0,6.6,5.4,12,12,12s12-5.4,12-12c0-6.6-5.4-12-12-12S268,125.7,268,132.3"/>
	<path class="st3" d="M254.2,162.8c0,3.3,2.7,6,6,6c3.3,0,6-2.7,6-6s-2.7-6-6-6C256.9,156.8,254.2,159.5,254.2,162.8"/>
</g>
<g class="st0">
	<path class="st1" d="M144.4,495.8v-1.2c12.8,0,23.3-10.3,23.3-23.1c0,0,0,0,0,0c0-0.1,0-0.1,0-0.2v-12h1.2v12
		c0,6.5-2.6,12.8-7.2,17.4C157.1,493.3,150.9,495.8,144.4,495.8z"/>
	<path class="st1" d="M80.4,241.3c-20.2,0-36.6-16.4-36.6-36.7c0-9.7,3.9-19,10.7-25.8l0.9,0.9c-6.7,6.6-10.4,15.6-10.3,25
		c0,9.4,3.7,18.4,10.3,25c6.6,6.7,15.6,10.4,25,10.3V241.3z"/>
	<rect x="167.7" y="336.5" class="st1" width="1.2" height="122.7"/>
	<rect x="167.7" y="241.7" class="st1" width="1.2" height="94.8"/>
	<path class="st1" d="M168.9,290.6h-1.2c0-12.8-10.3-23.3-23.1-23.3c0,0,0,0,0,0h-0.2v-1.2c6.5,0,12.8,2.6,17.4,7.2
		C166.4,277.9,168.9,284.1,168.9,290.6z"/>
	<rect x="167.7" y="240.7" class="st1" width="1.2" height="97.8"/>
	<path class="st1" d="M168.9,240.7h-1.2c-0.1-26.1-21.2-47.2-47.3-47.3v-1.3c26.8,0,48.5,21.7,48.5,48.5v0
		C168.9,240.6,168.9,240.6,168.9,240.7z"/>
	<path class="st1" d="M168.9,276.6h-1.2c-0.1-26.1-21.2-47.2-47.3-47.3c-20.2,0-36.6-16.4-36.6-36.7c0-9.7,3.9-19,10.7-25.8l0.9,0.9
		c-6.7,6.6-10.4,15.6-10.3,25c0,9.4,3.7,18.4,10.3,25c6.6,6.7,15.6,10.4,25,10.3c12.9-0.1,25.2,5,34.3,14.2
		C163.8,251.3,168.9,263.7,168.9,276.6z"/>
	<path class="st1" d="M168.9,324.6h-1.2c-0.1-26.1-21.2-47.2-47.3-47.3h-24v-1.2h24C147.2,276.1,168.9,297.8,168.9,324.6
		C168.9,324.6,168.9,324.6,168.9,324.6L168.9,324.6L168.9,324.6z"/>
	<path class="st1" d="M121,276.6h-1.2c0-9.4-3.7-18.4-10.3-25c-6.6-6.7-15.6-10.4-25-10.3h-24c-26.8,0-48.5-21.7-48.5-48.5
		c0,0,0,0,0,0l0,0c-0.1-12.9,5-25.2,14.2-34.3l0.9,0.9c-18.4,18.5-18.4,48.4,0.1,66.9c8.8,8.8,20.8,13.8,33.3,13.8h24
		c20.1-0.1,36.4,16.1,36.5,36.2C121,276.4,121,276.5,121,276.6z"/>
	<path class="st2" d="M64.2,182.5c0,6.6-5.4,12-12,12s-12-5.4-12-12s5.4-12,12-12S64.2,175.9,64.2,182.5"/>
	<path class="st2" d="M126.4,228.7c0,3.3-2.7,6-6,6s-6-2.7-6-6s2.7-6,6-6S126.4,225.4,126.4,228.7"/>
	<path class="st2" d="M102.4,276.6c0,3.3-2.7,6-6,6s-6-2.7-6-6c0-3.3,2.7-6,6-6S102.4,273.3,102.4,276.6"/>
	<path class="st3" d="M150.3,266.6c0,3.3-2.7,6-6,6s-6-2.7-6-6s2.7-6,6-6C147.6,260.6,150.3,263.3,150.3,266.6"/>
	<path class="st3" d="M132.3,192.8c0,6.6-5.4,11.9-12,11.8c-6.6,0-11.9-5.4-11.8-12s5.4-11.9,12-11.8c6.5,0,11.8,5.3,11.8,11.8
		C132.3,192.7,132.3,192.7,132.3,192.8"/>
	<path class="st3" d="M156.8,203.7c0,3.3-2.7,6-6,6s-6-2.7-6-6s2.7-6,6-6S156.8,200.4,156.8,203.7"/>
	<path class="st3" d="M98.2,170.5c0,3.3-2.7,6-6,6s-6-2.7-6-6s2.7-6,6-6S98.2,167.2,98.2,170.5"/>
	<path class="st3" d="M26.3,218.8c0,3.3-2.7,6-6,6s-6-2.7-6-6s2.7-6,6-6S26.3,215.5,26.3,218.8"/>
	<path class="st3" d="M31.6,160.7c0,3.3-2.7,6-6,6s-6-2.7-6-6s2.7-6,6-6S31.6,157.4,31.6,160.7"/>
	<path class="st3" d="M98.7,240.7c0,5-4,9-9,9s-9-4-9-9s4-9,9-9C94.6,231.8,98.6,235.8,98.7,240.7"/>
</g>
<g class="st0">
	<path class="st1" d="M228.3,495.8c-13.6,0-24.6-11-24.6-24.6c0,0,0,0,0,0l0,0v-12h1.2v12c0,12.8,10.3,23.2,23.1,23.3h0.2v1.3H228.3
		z"/>
	<path class="st1" d="M204.9,290.6h-1.2c0-13.6,11-24.6,24.6-24.6h0l0,0v1.2C215.3,267.2,204.9,277.7,204.9,290.6L204.9,290.6
		L204.9,290.6z"/>
	<path class="st1" d="M203.7,459.2l-0.1-218.6c0-26.8,21.7-48.5,48.5-48.5h0l0,0v1.2c-26.1,0.1-47.2,21.2-47.3,47.3l0.1,218.6H203.7
		z"/>
	<path class="st1" d="M204.9,324.6h-1.2c0-26.8,21.7-48.5,48.5-48.5h0h24v1.2h-24C226.1,277.4,204.9,298.5,204.9,324.6L204.9,324.6z
		"/>
	<path class="st1" d="M204.9,276.6h-1.2c0-26.8,21.7-48.5,48.5-48.5h0l0,0c9.4,0,18.4-3.7,25-10.3c6.7-6.6,10.4-15.6,10.3-25h1.2
		c0,20.2-16.3,36.6-36.5,36.6c0,0,0,0,0,0h-0.1C226,229.4,204.9,250.6,204.9,276.6L204.9,276.6z"/>
	<path class="st1" d="M252.8,276.6h-1.2c0-20.2,16.3-36.6,36.5-36.6c0,0,0,0,0,0h24.1c26.1,0,47.3-21.1,47.3-47.2
		c0-12.6-5-24.7-13.9-33.5l0.9-0.9c18.9,18.9,18.9,49.6,0,68.6c-9.1,9.1-21.4,14.2-34.3,14.2h-24c-19.5,0-35.4,15.8-35.4,35.3
		c0,0,0,0,0,0C252.8,276.5,252.8,276.6,252.8,276.6L252.8,276.6z"/>
	<path class="st1" d="M292.1,241.3v-1.2c9.4,0,18.4-3.7,25-10.3c6.7-6.6,10.4-15.6,10.3-25h1.2c0.1,20.1-16.1,36.4-36.2,36.5
		c0,0,0,0,0,0H292.1z"/>
	<path class="st2" d="M222.2,266.6c0,3.3,2.7,6,6,6s6-2.7,6-6s-2.7-6-6-6C224.9,260.6,222.2,263.3,222.2,266.6"/>
	<path class="st2" d="M212,207.1c0,3.3,2.7,6,6,6s6-2.7,6-6s-2.7-6-6-6S212,203.8,212,207.1"/>
	<path class="st2" d="M316.1,204.7c0,6.6,5.4,12,12,12s12-5.4,12-12s-5.4-12-12-12S316.1,198.1,316.1,204.7"/>
	<path class="st3" d="M240.2,192.8c0,6.6,5.4,11.9,12,11.8c6.6,0,11.9-5.4,11.8-12s-5.4-11.9-12-11.8c-6.5,0-11.8,5.3-11.8,11.8
		C240.2,192.7,240.2,192.7,240.2,192.8"/>
	<path class="st3" d="M243.2,228.7c0,5,4,9,9,9s9-4,9-9s-4-9-9-9l0,0l0,0C247.2,219.7,243.2,223.7,243.2,228.7"/>
	<path class="st3" d="M270.1,276.6c0,3.3,2.7,6,6,6s6-2.7,6-6c0-3.3-2.7-6-6-6S270.1,273.3,270.1,276.6"/>
	<path class="st3" d="M282.1,192.8c0,3.3,2.7,6,6,6s6-2.7,6-6s-2.7-6-6-6S282.1,189.5,282.1,192.8"/>
	<path class="st3" d="M282.1,240.7c0,3.3,2.7,6,6,6s6-2.7,6-6s-2.7-6-6-6S282.1,237.4,282.1,240.7L282.1,240.7L282.1,240.7"/>
	<path class="st3" d="M340,158.9c0,3.3,2.7,6,6,6s6-2.7,6-6s-2.7-6-6-6S340,155.6,340,158.9"/>
	<path class="st4" d="M311.2,174.5c-1.5-6.6-4.4-8.9-4.4-8.9c-0.5-0.5-0.9-1.2-1-1.9c-0.1-0.6-0.1-1.2,0-1.8
		c0.2-0.7,0.5-1.4,1.1-1.9c1.5-1.5,3.9-1.6,5.5-0.1l0.1,0.1l5.7,5.6l14.1,14.1c-4.2,4.2-12.9,4.2-17.4,0.5
		C313,178.8,311.7,176.8,311.2,174.5"/>
	<path class="st5" d="M305.7,163.7l-3.7-1.8h3.7C305.5,162.5,305.5,163.1,305.7,163.7"/>
	<path d="M307.4,163.5c0.4,0.4,1,0.4,1.4,0c0.4-0.4,0.4-1,0-1.4c-0.4-0.4-1-0.4-1.4,0c0,0,0,0,0,0l0,0
		C307,162.5,307,163.1,307.4,163.5"/>
	<path class="st6" d="M316.2,174.5c2-0.4,4.7-1.9,7.3-3.5l18.6,18.6L312.7,174c0.7,0.4,1.6,0.6,2.4,0.6
		C315.5,174.7,315.8,174.6,316.2,174.5"/>
	<path class="st7" d="M315,164.7h17.5c0,0-4.4,3.5-9,6.4c-2.3,1.5-4.7,2.7-7.3,3.5c-0.4,0.1-0.8,0.2-1.2,0.2c-0.8,0-1.7-0.2-2.4-0.6
		c-1.6-0.9-2.6-2.6-2.6-4.4c-0.1-2.8,2.1-5,4.9-5.1c0,0,0,0,0,0L315,164.7"/>
	<path class="st7" d="M315,164.7h17.5c0,0-4.4,3.5-9,6.4c-2.3,1.5-4.7,2.7-7.3,3.5c-0.4,0.1-0.8,0.2-1.2,0.2c-0.8,0-1.7-0.2-2.4-0.6
		c-1.6-0.9-2.6-2.6-2.6-4.4c-0.1-2.8,2.1-5,4.9-5.1c0,0,0,0,0,0L315,164.7"/>
	<path class="st8" d="M315,164.7h17.5c0,0-4.4,3.5-9,6.4c-2.3,1.5-4.7,2.7-7.3,3.5c-0.4,0.1-0.8,0.2-1.2,0.2c-0.8,0-1.7-0.2-2.4-0.6
		c-1.6-0.9-2.6-2.6-2.6-4.4c-0.1-2.8,2.1-5,4.9-5.1c0,0,0,0,0,0L315,164.7"/>
</g>
<g class="st0">
	<path class="st1" d="M98.3,161.2c-4.4,0-8.6-1.7-11.7-4.9c-3.1-3.1-4.9-7.3-4.9-11.7c0-4.4,1.7-8.6,4.9-11.7l0.9,0.9
		c-6,6-6,15.8,0,21.8c2.9,2.9,6.8,4.5,10.9,4.5v1.1L98.3,161.2z"/>
	<path class="st1" d="M180.9,124.9h-1.2c0-12.8-10.3-23.3-23.1-23.3c0,0,0,0,0,0h-0.2v-1.2c6.5,0,12.8,2.6,17.4,7.2
		C178.4,112.2,180.9,118.4,180.9,124.9z"/>
	<path class="st1" d="M180.9,142.8h-1.2V66.9c0-12.8-10.3-23.3-23.1-23.3c0,0,0,0,0,0h-0.2v-1.2c13.6,0,24.6,11,24.6,24.6
		c0,0,0,0,0,0l0,0v75.8H180.9z"/>
	<path class="st1" d="M180.9,98.9h-1.2c0-12.8-10.3-23.3-23.1-23.3c0,0,0,0,0,0h-6.2c-13.6,0-24.6-11-24.6-24.6c0,0,0,0,0,0l0,0h1.2
		c0,12.8,10.3,23.3,23.1,23.3c0,0,0,0,0,0h6.2C169.9,74.3,180.9,85.3,180.9,98.9C180.9,98.9,180.9,98.9,180.9,98.9L180.9,98.9
		L180.9,98.9z"/>
	<path class="st1" d="M180.9,164.8h-1.2c-0.1-26.1-21.2-47.2-47.3-47.3h-12c-13.6,0-24.6-11-24.6-24.6c0-6.5,2.6-12.8,7.2-17.4
		l0.9,0.9c-9.1,9.1-9.1,23.8,0,33c4.4,4.4,10.3,6.9,16.5,6.8h12c26.8,0,48.5,21.7,48.5,48.5c0,0,0,0,0,0S180.9,164.8,180.9,164.8z"
		/>
	<path class="st1" d="M168.4,495.8v-1.2c6.2,0,11.3-5,11.3-11.2c0,0,0,0,0,0c0,0,0,0,0-0.1v-6L179.6,99h1.2l0.1,378.3v6
		C180.9,490.2,175.4,495.8,168.4,495.8C168.5,495.8,168.5,495.8,168.4,495.8L168.4,495.8L168.4,495.8z"/>
	<path class="st1" d="M180.8,225.4h-1.2v-37.9c0-12.5-5-24.6-13.9-33.4l0.9-0.9c9.1,9.1,14.2,21.4,14.2,34.3V225.4z"/>
	<path class="st1" d="M180.8,208.5h-1.2c-0.1-26.1-21.2-47.2-47.3-47.3H96.4c-20.2,0-36.6-16.4-36.6-36.7c0-9.7,3.9-19,10.7-25.8
		l0.9,0.9c-6.7,6.6-10.4,15.6-10.3,25c0,9.4,3.7,18.4,10.3,25c6.6,6.7,15.6,10.4,25,10.3h35.9c12.9-0.1,25.2,5,34.3,14.2
		C175.7,183.2,180.8,195.6,180.8,208.5z"/>
	<path class="st2" d="M162.3,100.9c0,3.3-2.7,6-6,6s-6-2.7-6-6s2.7-6,6-6S162.3,97.6,162.3,100.9"/>
	<path class="st2" d="M102.3,130.6c0,6.6-5.4,12-12,12s-12-5.4-12-12c0-6.6,5.4-12,12-12S102.3,124,102.3,130.6"/>
	<path class="st3" d="M163.2,43c0,3.3-2.7,6-6,6s-6-2.7-6-6s2.7-6,6-6S163.2,39.7,163.2,43"/>
	<path class="st3" d="M144.3,116.9c0,6.6-5.4,12-12,12c-6.6,0-12-5.4-12-12s5.4-12,12-12C138.9,104.9,144.3,110.3,144.3,116.9"/>
	<path class="st3" d="M120.4,51c0,3.3,2.7,6,6,6c3.3,0,6-2.7,6-6s-2.7-6-6-6C123.1,45,120.4,47.7,120.4,51"/>
	<path class="st3" d="M96.4,108.9c0,3.3,2.7,6,6,6s6-2.7,6-6s-2.7-6-6-6S96.4,105.6,96.4,108.9"/>
	<path class="st3" d="M158.3,74.9c0,5-4,9-9,9s-9-4-9-9s4-9,9-9S158.3,69.9,158.3,74.9"/>
	<path class="st3" d="M138.2,160.5c0,3.3-2.7,6-6,6s-6-2.7-6-6s2.7-6,6-6S138.2,157.2,138.2,160.5"/>
	<path class="st3" d="M76.7,99.2c0,3.3-2.7,6-6,6s-6-2.7-6-6s2.7-6,6-6S76.7,95.9,76.7,99.2"/>
	<path class="st4" d="M109.3,76.7c1.5-6.6,4.4-8.9,4.4-8.9c0.5-0.5,0.9-1.2,1-1.9c0.1-0.6,0.1-1.2,0-1.8c-0.2-0.7-0.5-1.4-1.1-1.9
		c-1.5-1.5-3.9-1.6-5.5-0.1l-0.1,0.1l-5.6,5.6L88.3,81.9c4.2,4.2,12.9,4.2,17.4,0.5C107.5,81,108.8,78.9,109.3,76.7"/>
	<path class="st6" d="M109,68.3c-2-2-5.1-2-7.1,0l0,0l-0.1,0.1l-8,8l-4.3,4.3L78.6,91.6L106,77.1c0.8-0.3,1.5-0.6,2.2-1.1
		c0.4-0.2,0.7-0.4,1-0.7C111.1,73.3,111,70.2,109,68.3"/>
	<path class="st5" d="M114.8,65.9l3.7-1.8h-3.7C114.9,64.7,114.9,65.3,114.8,65.9"/>
	<path d="M113,65.7c-0.4,0.4-1,0.4-1.4,0s-0.4-1,0-1.4c0.4-0.4,1-0.4,1.4,0c0,0,0,0,0,0l0,0C113.4,64.7,113.4,65.3,113,65.7"/>
	<path class="st8" d="M109,68.3c-2-2-5.1-2-7.1,0l0,0l-0.1,0.1l-8,8l-4.3,4.3c0,0,10.5-1.2,16.4-3.5c0.8-0.3,1.5-0.6,2.2-1.1
		c0.4-0.2,0.7-0.4,1-0.7C111,73.4,111,70.3,109,68.3L109,68.3"/>
	<path class="st2" d="M172.2,153.5c0,3.3-2.7,6-6,6s-6-2.7-6-6s2.7-6,6-6S172.2,150.2,172.2,153.5"/>
</g>
<text transform="matrix(1 0 0 1 37 337)" class="st9 st10 st11">In finance</text>
<text transform="matrix(1 0 0 1 8 20)" class="st9 st10 st11">In philanthropy</text>
<text transform="matrix(1 0 0 1 221 337)" class="st9 st10 st11">In business</text>
<text transform="matrix(1 0 0 1 208 20)" class="st9 st10 st11">In communities</text>
</svg>
